# xmcd
#
# Track frame offsets:
#	150
#	4097
#	22993
#	44025
#	66305
#	88801
#	108753
#	132281
#	152593
#	159081
#	180305
#	195241
#	210897
#	229313
#	248065
#	254193
#	279110
#	300687
#	323689
#	340628
#
# Disc length: 4732 seconds
#
# Revision: 1
# Processed by: cddbd v1.5.1PL0 Copyright (c) Steve Scherf et al.
# Submitted via: audiograbber 1.83.01
#
DISCID=fd127a14
DTITLE=India arie - Acoustic soul
DYEAR=2001
DGENRE=R&B
TTITLE0=Intro
TTITLE1=Video
TTITLE2=Promises
TTITLE3=Brown skin
TTITLE4=Strength, Courage and Wisdom
TTITLE5=Nature
TTITLE6=Back to the middle
TTITLE7=Ready for love
TTITLE8=Interlude
TTITLE9=Always in my head
TTITLE10=I see god in you
TTITLE11=Simple
TTITLE12=Part of my life
TTITLE13=Beautifull
TTITLE14=Outro
TTITLE15=Wonderful
TTITLE16=Case - missing you
TTITLE17=Musiq soul - child love
TTITLE18=Jaheim - could it be
TTITLE19=Missy elliot feat. nelly furtado - get ur feak on
EXTD=
EXTT0=
EXTT1=
EXTT2=
EXTT3=
EXTT4=
EXTT5=
EXTT6=
EXTT7=
EXTT8=
EXTT9=
EXTT10=
EXTT11=
EXTT12=
EXTT13=
EXTT14=
EXTT15=
EXTT16=
EXTT17=
EXTT18=
EXTT19=
PLAYORDER=
